<svg xmlns="http://www.w3.org/2000/svg" xmlns:xlink="http://www.w3.org/1999/xlink" width="500" zoomAndPan="magnify" viewBox="0 0 375 374.999991" height="500" preserveAspectRatio="xMidYMid meet" version="1.0"><defs><clipPath id="921adeb4df"><path d="M 152 46 L 367 46 L 367 280 L 152 280 Z M 152 46 " clip-rule="nonzero"/></clipPath><clipPath id="5bb111ce8a"><path d="M 154.070312 42.238281 L 375.277344 46.625 L 370.5625 284.328125 L 149.355469 279.941406 Z M 154.070312 42.238281 " clip-rule="nonzero"/></clipPath><clipPath id="afa41d2c0c"><path d="M 154.070312 42.238281 L 375.277344 46.625 L 370.5625 284.328125 L 149.355469 279.941406 Z M 154.070312 42.238281 " clip-rule="nonzero"/></clipPath><clipPath id="b4b432740b"><path d="M 7.5 131.710938 L 129 131.710938 L 129 256.953125 L 7.5 256.953125 Z M 7.5 131.710938 " clip-rule="nonzero"/></clipPath><clipPath id="0f541c2f0a"><path d="M 26.25 131.710938 L 109.992188 131.710938 C 114.964844 131.710938 119.734375 133.683594 123.25 137.199219 C 126.765625 140.71875 128.742188 145.484375 128.742188 150.457031 L 128.742188 238.132812 C 128.742188 243.105469 126.765625 247.871094 123.25 251.390625 C 119.734375 254.90625 114.964844 256.878906 109.992188 256.878906 L 26.25 256.878906 C 21.277344 256.878906 16.507812 254.90625 12.992188 251.390625 C 9.476562 247.871094 7.5 243.105469 7.5 238.132812 L 7.5 150.457031 C 7.5 145.484375 9.476562 140.71875 12.992188 137.199219 C 16.507812 133.683594 21.277344 131.710938 26.25 131.710938 Z M 26.25 131.710938 " clip-rule="nonzero"/></clipPath><clipPath id="80036fa9c5"><path d="M 114 284 L 215 284 L 215 306 L 114 306 Z M 114 284 " clip-rule="nonzero"/></clipPath><clipPath id="f178112030"><path d="M 114.648438 305.394531 L 114.136719 287.007812 L 213.761719 284.246094 L 214.269531 302.632812 Z M 114.648438 305.394531 " clip-rule="nonzero"/></clipPath><clipPath id="f147eaf7d1"><path d="M 114.523438 300.894531 L 114.261719 291.503906 C 114.195312 289.019531 116.152344 286.949219 118.636719 286.882812 L 209.210938 284.371094 C 211.695312 284.300781 213.765625 286.261719 213.835938 288.746094 L 214.09375 298.136719 C 214.164062 300.621094 212.207031 302.691406 209.722656 302.757812 L 119.144531 305.269531 C 116.660156 305.335938 114.59375 303.378906 114.523438 300.894531 Z M 114.523438 300.894531 " clip-rule="nonzero"/></clipPath><clipPath id="cf9b51b9b2"><path d="M 175 253 L 283 253 L 283 332 L 175 332 Z M 175 253 " clip-rule="nonzero"/></clipPath><clipPath id="e5e13428f6"><path d="M 280.964844 252.386719 L 283.617188 328.84375 L 177.183594 332.535156 L 174.527344 256.082031 Z M 280.964844 252.386719 " clip-rule="nonzero"/></clipPath><clipPath id="20f1b82a60"><path d="M 285.953125 247.039062 L 288.824219 329.777344 L 175.058594 333.722656 L 172.1875 250.984375 Z M 285.953125 247.039062 " clip-rule="nonzero"/></clipPath><clipPath id="0a6fa6f894"><path d="M 282.128906 286.113281 L 282.449219 295.339844 C 282.761719 304.285156 279.503906 312.984375 273.398438 319.53125 C 267.292969 326.074219 258.839844 329.925781 249.894531 330.234375 L 210.921875 331.585938 C 201.976562 331.898438 193.273438 328.640625 186.730469 322.535156 C 180.1875 316.429688 176.335938 307.976562 176.023438 299.03125 L 175.703125 289.808594 C 175.394531 280.863281 178.648438 272.160156 184.753906 265.617188 C 190.859375 259.070312 199.316406 255.222656 208.261719 254.910156 L 247.234375 253.558594 C 256.179688 253.25 264.878906 256.503906 271.425781 262.609375 C 277.96875 268.714844 281.820312 277.167969 282.128906 286.113281 Z M 282.128906 286.113281 " clip-rule="nonzero"/></clipPath></defs><path stroke-linecap="round" transform="matrix(0.418669, 0.622267, -0.622267, 0.418669, 123.784655, 169.028103)" fill="none" stroke-linejoin="miter" d="M 16.950445 40.71306 C 39.042355 1.440045 87.811531 3.166599 163.259388 45.899953 " stroke="#004b00" stroke-width="25" stroke-opacity="1" stroke-miterlimit="4"/><g clip-path="url(#921adeb4df)"><g clip-path="url(#5bb111ce8a)"><g clip-path="url(#afa41d2c0c)"><path fill="#004b00" d="M 158.941406 208.90625 C 156.886719 197.152344 152.058594 160.386719 174.191406 127.769531 C 198.582031 91.820312 240.449219 83.371094 248.695312 81.707031 C 282.144531 74.957031 297.648438 86.652344 327.386719 74.582031 C 346.03125 67.019531 358.628906 54.828125 365.984375 46.410156 C 367.203125 60.03125 372.886719 136.464844 324.089844 178.277344 C 288.792969 208.539062 246.902344 213.960938 246.902344 213.960938 C 221.90625 217.191406 204.65625 211.914062 189.648438 223.988281 C 175.53125 235.355469 172.390625 254.851562 171.8125 268.699219 C 171.8125 275.367188 166.246094 280.105469 161.261719 279.65625 C 156.058594 279.183594 151.324219 273.039062 153.050781 266.261719 C 155.230469 252.359375 159.875 232.113281 170.707031 209.765625 C 179.003906 192.644531 193.101562 164.410156 224.332031 142.824219 C 247.09375 127.082031 270.21875 120.933594 286.828125 118.425781 C 277.679688 117.425781 241.535156 114.550781 206.628906 138.746094 C 170.574219 163.746094 160.972656 200.25 158.941406 208.90625 Z M 158.941406 208.90625 " fill-opacity="1" fill-rule="nonzero"/></g></g></g><g clip-path="url(#b4b432740b)"><g clip-path="url(#0f541c2f0a)"><path stroke-linecap="butt" transform="matrix(0.75, 0, 0, 0.75, 7.500004, 131.709483)" fill="none" stroke-linejoin="miter" d="M 24.999996 0.00193887 L 136.656254 0.00193887 C 143.286462 0.00193887 149.645838 2.632147 154.333338 7.319648 C 159.020838 12.012356 161.656255 18.366523 161.656255 24.996732 L 161.656255 141.897782 C 161.656255 148.52799 159.020838 154.882157 154.333338 159.574866 C 149.645838 164.262366 143.286462 166.892575 136.656254 166.892575 L 24.999996 166.892575 C 18.369788 166.892575 12.010412 164.262366 7.322912 159.574866 C 2.635411 154.882157 -0.00000534333 148.52799 -0.00000534333 141.897782 L -0.00000534333 24.996732 C -0.00000534333 18.366523 2.635411 12.012356 7.322912 7.319648 C 12.010412 2.632147 18.369788 0.00193887 24.999996 0.00193887 Z M 24.999996 0.00193887 " stroke="#004b00" stroke-width="50" stroke-opacity="1" stroke-miterlimit="4"/></g></g><g clip-path="url(#80036fa9c5)"><g clip-path="url(#f178112030)"><g clip-path="url(#f147eaf7d1)"><path fill="#004b00" d="M 114.648438 305.394531 L 114.136719 287.007812 L 213.6875 284.246094 L 214.199219 302.632812 Z M 114.648438 305.394531 " fill-opacity="1" fill-rule="nonzero"/></g></g></g><g clip-path="url(#cf9b51b9b2)"><g clip-path="url(#e5e13428f6)"><g clip-path="url(#20f1b82a60)"><g clip-path="url(#0a6fa6f894)"><path stroke-linecap="butt" transform="matrix(0.0260097, 0.749549, -0.749549, 0.0260097, 280.960064, 252.388195)" fill="none" stroke-linejoin="miter" d="M 44.993782 0.00191109 L 57.303277 0.00171611 C 69.237636 -0.00107332 80.678979 4.742311 89.120581 13.180764 C 97.556979 21.619036 102.298438 33.061185 102.296023 44.995364 L 102.294947 96.990147 C 102.297736 108.924506 97.554171 120.371054 89.115899 128.807451 C 80.677626 137.243848 69.235478 141.985308 57.301118 141.988098 L 44.996828 141.988473 C 33.06265 141.986057 21.615921 137.247697 13.179524 128.809425 C 4.737921 120.370972 0.00184749 108.923799 -0.000941945 96.98944 L 0.000134087 44.994657 C 0.00254986 33.060478 4.740729 21.618955 13.179182 13.177353 C 21.617454 4.740955 33.059603 -0.00050468 44.993782 0.00191109 Z M 44.993782 0.00191109 " stroke="#004b00" stroke-width="50" stroke-opacity="1" stroke-miterlimit="4"/></g></g></g></g></svg>