<svg xmlns="http://www.w3.org/2000/svg" xmlns:xlink="http://www.w3.org/1999/xlink" width="500" zoomAndPan="magnify" viewBox="0 0 375 374.999991" height="500" preserveAspectRatio="xMidYMid meet" version="1.0"><defs><g/></defs><g fill="#ffac1c" fill-opacity="1"><g transform="translate(0.0000045, 207.120795)"><g><path d="M 25.171875 -6.578125 C 29.804688 -6.578125 34.003906 -6.859375 37.765625 -7.421875 C 41.523438 -7.984375 44.1875 -8.421875 45.75 -8.734375 C 45.5625 -6.609375 45.390625 -4.929688 45.234375 -3.703125 C 45.078125 -2.484375 45 -1.875 45 -1.875 C 43.488281 -1.3125 41.53125 -0.8125 39.125 -0.375 C 36.71875 0.0625 34.257812 0.390625 31.75 0.609375 C 29.25 0.828125 27.054688 0.9375 25.171875 0.9375 C 23.359375 0.9375 21.164062 0.828125 18.59375 0.609375 C 16.03125 0.390625 13.539062 0.0625 11.125 -0.375 C 8.71875 -0.8125 6.765625 -1.3125 5.265625 -1.875 C 5.265625 -1.875 5.140625 -3.140625 4.890625 -5.671875 C 4.640625 -8.210938 4.367188 -11.691406 4.078125 -16.109375 C 3.796875 -20.523438 3.65625 -25.519531 3.65625 -31.09375 C 3.65625 -36.664062 3.796875 -41.660156 4.078125 -46.078125 C 4.367188 -50.492188 4.640625 -53.96875 4.890625 -56.5 C 5.140625 -59.039062 5.265625 -60.3125 5.265625 -60.3125 C 6.765625 -60.9375 8.71875 -61.453125 11.125 -61.859375 C 13.539062 -62.265625 16.03125 -62.578125 18.59375 -62.796875 C 21.164062 -63.015625 23.359375 -63.125 25.171875 -63.125 C 27.054688 -63.125 29.25 -63.015625 31.75 -62.796875 C 34.257812 -62.578125 36.71875 -62.265625 39.125 -61.859375 C 41.53125 -61.453125 43.488281 -60.9375 45 -60.3125 C 45 -60.3125 45.078125 -59.695312 45.234375 -58.46875 C 45.390625 -57.25 45.5625 -55.546875 45.75 -53.359375 C 44.8125 -53.546875 43.289062 -53.828125 41.1875 -54.203125 C 39.09375 -54.578125 36.648438 -54.90625 33.859375 -55.1875 C 31.078125 -55.46875 28.179688 -55.609375 25.171875 -55.609375 C 23.484375 -55.609375 21.695312 -55.53125 19.8125 -55.375 C 17.9375 -55.21875 16.34375 -55.046875 15.03125 -54.859375 C 13.71875 -54.671875 13.0625 -54.578125 13.0625 -54.578125 C 13.0625 -54.578125 12.984375 -53.492188 12.828125 -51.328125 C 12.671875 -49.171875 12.515625 -46.304688 12.359375 -42.734375 C 12.203125 -39.171875 12.125 -35.289062 12.125 -31.09375 C 12.125 -26.894531 12.203125 -23.007812 12.359375 -19.4375 C 12.515625 -15.875 12.671875 -13.007812 12.828125 -10.84375 C 12.984375 -8.6875 13.0625 -7.609375 13.0625 -7.609375 C 13.0625 -7.609375 13.71875 -7.53125 15.03125 -7.375 C 16.34375 -7.21875 17.9375 -7.046875 19.8125 -6.859375 C 21.695312 -6.671875 23.484375 -6.578125 25.171875 -6.578125 Z M 25.171875 -6.578125 "/></g></g></g><g fill="#ffac1c" fill-opacity="1"><g transform="translate(48.001603, 207.120795)"><g><path d="M 36.078125 -40.765625 C 36.578125 -37.828125 36.953125 -34.726562 37.203125 -31.46875 C 37.453125 -28.207031 37.578125 -24.828125 37.578125 -21.328125 L 37.578125 0 L 29.125 0 L 29.125 -21.328125 C 29.125 -22.515625 29.09375 -23.875 29.03125 -25.40625 C 28.96875 -26.945312 28.875 -28.4375 28.75 -29.875 C 28.625 -31.3125 28.53125 -32.515625 28.46875 -33.484375 C 28.40625 -34.453125 28.375 -34.9375 28.375 -34.9375 C 28.375 -34.9375 27.570312 -35.109375 25.96875 -35.453125 C 24.375 -35.804688 22.671875 -35.984375 20.859375 -35.984375 C 19.035156 -35.984375 17.375 -35.851562 15.875 -35.59375 C 14.375 -35.34375 13.28125 -35.125 12.59375 -34.9375 L 12.59375 0 L 4.046875 0 L 4.046875 -62.375 C 7.171875 -61.875 10.019531 -61.125 12.59375 -60.125 L 12.59375 -42.734375 C 13.90625 -42.992188 15.25 -43.1875 16.625 -43.3125 C 18 -43.4375 19.410156 -43.5 20.859375 -43.5 C 23.609375 -43.5 26.265625 -43.257812 28.828125 -42.78125 C 31.398438 -42.3125 33.816406 -41.640625 36.078125 -40.765625 Z M 36.078125 -40.765625 "/></g></g></g><g fill="#ffac1c" fill-opacity="1"><g transform="translate(89.615516, 207.120795)"><g><path d="M 12.78125 -61.25 C 12.96875 -60.625 13.09375 -59.929688 13.15625 -59.171875 C 13.21875 -58.421875 13.25 -57.640625 13.25 -56.828125 C 13.25 -56.015625 13.21875 -55.234375 13.15625 -54.484375 C 13.09375 -53.734375 12.96875 -53.015625 12.78125 -52.328125 C 12.15625 -52.140625 11.460938 -51.984375 10.703125 -51.859375 C 9.953125 -51.734375 9.140625 -51.671875 8.265625 -51.671875 C 7.453125 -51.671875 6.671875 -51.734375 5.921875 -51.859375 C 5.171875 -51.984375 4.445312 -52.140625 3.75 -52.328125 C 3.625 -53.015625 3.515625 -53.734375 3.421875 -54.484375 C 3.328125 -55.234375 3.28125 -56.015625 3.28125 -56.828125 C 3.28125 -57.640625 3.328125 -58.421875 3.421875 -59.171875 C 3.515625 -59.929688 3.625 -60.625 3.75 -61.25 C 4.445312 -61.5 5.171875 -61.671875 5.921875 -61.765625 C 6.671875 -61.859375 7.453125 -61.90625 8.265625 -61.90625 C 10.015625 -61.90625 11.519531 -61.6875 12.78125 -61.25 Z M 4.046875 0 L 4.046875 -43.5 C 7.046875 -43.050781 9.863281 -42.296875 12.5 -41.234375 L 12.5 0 Z M 4.046875 0 "/></g></g></g><g fill="#ffac1c" fill-opacity="1"><g transform="translate(106.054419, 207.120795)"><g><path d="M 24.515625 -20.578125 L 30.53125 -42.078125 L 39.453125 -42.078125 L 32.6875 -18.21875 C 31.875 -15.28125 30.921875 -12.289062 29.828125 -9.25 C 28.734375 -6.21875 27.773438 -3.789062 26.953125 -1.96875 L 14.375 26.203125 C 13 26.078125 11.570312 25.90625 10.09375 25.6875 C 8.625 25.46875 7.140625 25.140625 5.640625 24.703125 L 16.625 0.1875 C 16.375 0.1875 16.109375 0.171875 15.828125 0.140625 C 15.546875 0.109375 15.28125 0.09375 15.03125 0.09375 C 13.71875 -2.601562 12.492188 -5.484375 11.359375 -8.546875 C 10.234375 -11.617188 9.203125 -14.84375 8.265625 -18.21875 L 1.59375 -42.078125 L 10.421875 -42.078125 L 16.4375 -20.578125 C 17.0625 -18.378906 17.734375 -16.242188 18.453125 -14.171875 C 19.171875 -12.109375 19.847656 -10.203125 20.484375 -8.453125 C 21.171875 -10.203125 21.859375 -12.109375 22.546875 -14.171875 C 23.234375 -16.242188 23.890625 -18.378906 24.515625 -20.578125 Z M 24.515625 -20.578125 "/></g></g></g><g fill="#ffac1c" fill-opacity="1"><g transform="translate(145.695608, 207.120795)"><g><path d="M 35.703125 -40.765625 C 36.203125 -37.828125 36.578125 -34.726562 36.828125 -31.46875 C 37.078125 -28.207031 37.203125 -24.828125 37.203125 -21.328125 C 37.203125 -17.816406 37.078125 -14.429688 36.828125 -11.171875 C 36.578125 -7.921875 36.203125 -4.820312 35.703125 -1.875 C 33.441406 -1 31.023438 -0.3125 28.453125 0.1875 C 25.890625 0.6875 23.234375 0.9375 20.484375 0.9375 C 17.722656 0.9375 15.039062 0.6875 12.4375 0.1875 C 9.84375 -0.3125 7.421875 -1 5.171875 -1.875 C 5.171875 -1.875 4.914062 -2.9375 4.40625 -5.0625 C 3.90625 -7.195312 3.65625 -9.988281 3.65625 -13.4375 C 3.65625 -16.9375 3.90625 -19.75 4.40625 -21.875 C 4.914062 -24.007812 5.171875 -25.078125 5.171875 -25.078125 C 7.421875 -25.953125 9.84375 -26.640625 12.4375 -27.140625 C 15.039062 -27.648438 17.722656 -27.90625 20.484375 -27.90625 C 21.859375 -27.90625 23.21875 -27.84375 24.5625 -27.71875 C 25.90625 -27.59375 27.207031 -27.398438 28.46875 -27.140625 C 28.40625 -29.148438 28.3125 -30.953125 28.1875 -32.546875 C 28.0625 -34.140625 28 -34.9375 28 -34.9375 C 28 -34.9375 27.195312 -35.109375 25.59375 -35.453125 C 24 -35.804688 22.296875 -35.984375 20.484375 -35.984375 C 16.910156 -35.984375 13.648438 -35.679688 10.703125 -35.078125 C 7.765625 -34.484375 5.609375 -33.96875 4.234375 -33.53125 C 4.359375 -34.789062 4.5 -36.015625 4.65625 -37.203125 C 4.8125 -38.390625 4.984375 -39.578125 5.171875 -40.765625 C 7.421875 -41.640625 9.84375 -42.3125 12.4375 -42.78125 C 15.039062 -43.257812 17.722656 -43.5 20.484375 -43.5 C 23.234375 -43.5 25.890625 -43.257812 28.453125 -42.78125 C 31.023438 -42.3125 33.441406 -41.640625 35.703125 -40.765625 Z M 20.484375 -6.578125 C 22.484375 -6.578125 24.234375 -6.75 25.734375 -7.09375 C 27.242188 -7.4375 28 -7.609375 28 -7.609375 C 28 -7.609375 28.046875 -8.25 28.140625 -9.53125 C 28.234375 -10.8125 28.34375 -12.359375 28.46875 -14.171875 C 28.59375 -15.992188 28.65625 -17.71875 28.65625 -19.34375 C 27.769531 -19.601562 26.59375 -19.84375 25.125 -20.0625 C 23.65625 -20.28125 22.109375 -20.390625 20.484375 -20.390625 C 18.660156 -20.390625 16.921875 -20.210938 15.265625 -19.859375 C 13.609375 -19.515625 12.78125 -19.34375 12.78125 -19.34375 C 12.78125 -19.34375 12.6875 -18.796875 12.5 -17.703125 C 12.3125 -16.609375 12.21875 -15.1875 12.21875 -13.4375 C 12.21875 -11.738281 12.3125 -10.34375 12.5 -9.25 C 12.6875 -8.15625 12.78125 -7.609375 12.78125 -7.609375 C 12.78125 -7.609375 13.609375 -7.4375 15.265625 -7.09375 C 16.921875 -6.75 18.660156 -6.578125 20.484375 -6.578125 Z M 20.484375 -6.578125 "/></g></g></g><g fill="#ffac1c" fill-opacity="1"><g transform="translate(186.464088, 207.120795)"><g><path d="M 25.171875 -6.578125 C 29.804688 -6.578125 34.003906 -6.859375 37.765625 -7.421875 C 41.523438 -7.984375 44.1875 -8.421875 45.75 -8.734375 C 45.5625 -6.609375 45.390625 -4.929688 45.234375 -3.703125 C 45.078125 -2.484375 45 -1.875 45 -1.875 C 43.488281 -1.3125 41.53125 -0.8125 39.125 -0.375 C 36.71875 0.0625 34.257812 0.390625 31.75 0.609375 C 29.25 0.828125 27.054688 0.9375 25.171875 0.9375 C 23.359375 0.9375 21.164062 0.828125 18.59375 0.609375 C 16.03125 0.390625 13.539062 0.0625 11.125 -0.375 C 8.71875 -0.8125 6.765625 -1.3125 5.265625 -1.875 C 5.265625 -1.875 5.140625 -3.140625 4.890625 -5.671875 C 4.640625 -8.210938 4.367188 -11.691406 4.078125 -16.109375 C 3.796875 -20.523438 3.65625 -25.519531 3.65625 -31.09375 C 3.65625 -36.664062 3.796875 -41.660156 4.078125 -46.078125 C 4.367188 -50.492188 4.640625 -53.96875 4.890625 -56.5 C 5.140625 -59.039062 5.265625 -60.3125 5.265625 -60.3125 C 6.765625 -60.9375 8.71875 -61.453125 11.125 -61.859375 C 13.539062 -62.265625 16.03125 -62.578125 18.59375 -62.796875 C 21.164062 -63.015625 23.359375 -63.125 25.171875 -63.125 C 27.054688 -63.125 29.25 -63.015625 31.75 -62.796875 C 34.257812 -62.578125 36.71875 -62.265625 39.125 -61.859375 C 41.53125 -61.453125 43.488281 -60.9375 45 -60.3125 C 45 -60.3125 45.078125 -59.695312 45.234375 -58.46875 C 45.390625 -57.25 45.5625 -55.546875 45.75 -53.359375 C 44.8125 -53.546875 43.289062 -53.828125 41.1875 -54.203125 C 39.09375 -54.578125 36.648438 -54.90625 33.859375 -55.1875 C 31.078125 -55.46875 28.179688 -55.609375 25.171875 -55.609375 C 23.484375 -55.609375 21.695312 -55.53125 19.8125 -55.375 C 17.9375 -55.21875 16.34375 -55.046875 15.03125 -54.859375 C 13.71875 -54.671875 13.0625 -54.578125 13.0625 -54.578125 C 13.0625 -54.578125 12.984375 -53.492188 12.828125 -51.328125 C 12.671875 -49.171875 12.515625 -46.304688 12.359375 -42.734375 C 12.203125 -39.171875 12.125 -35.289062 12.125 -31.09375 C 12.125 -26.894531 12.203125 -23.007812 12.359375 -19.4375 C 12.515625 -15.875 12.671875 -13.007812 12.828125 -10.84375 C 12.984375 -8.6875 13.0625 -7.609375 13.0625 -7.609375 C 13.0625 -7.609375 13.71875 -7.53125 15.03125 -7.375 C 16.34375 -7.21875 17.9375 -7.046875 19.8125 -6.859375 C 21.695312 -6.671875 23.484375 -6.578125 25.171875 -6.578125 Z M 25.171875 -6.578125 "/></g></g></g><g fill="#ffac1c" fill-opacity="1"><g transform="translate(234.465686, 207.120795)"><g><path d="M 36.078125 -40.765625 C 36.578125 -37.828125 36.953125 -34.726562 37.203125 -31.46875 C 37.453125 -28.207031 37.578125 -24.828125 37.578125 -21.328125 L 37.578125 0 L 29.125 0 L 29.125 -21.328125 C 29.125 -22.515625 29.09375 -23.875 29.03125 -25.40625 C 28.96875 -26.945312 28.875 -28.4375 28.75 -29.875 C 28.625 -31.3125 28.53125 -32.515625 28.46875 -33.484375 C 28.40625 -34.453125 28.375 -34.9375 28.375 -34.9375 C 28.375 -34.9375 27.570312 -35.109375 25.96875 -35.453125 C 24.375 -35.804688 22.671875 -35.984375 20.859375 -35.984375 C 19.035156 -35.984375 17.375 -35.851562 15.875 -35.59375 C 14.375 -35.34375 13.28125 -35.125 12.59375 -34.9375 L 12.59375 0 L 4.046875 0 L 4.046875 -62.375 C 7.171875 -61.875 10.019531 -61.125 12.59375 -60.125 L 12.59375 -42.734375 C 13.90625 -42.992188 15.25 -43.1875 16.625 -43.3125 C 18 -43.4375 19.410156 -43.5 20.859375 -43.5 C 23.609375 -43.5 26.265625 -43.257812 28.828125 -42.78125 C 31.398438 -42.3125 33.816406 -41.640625 36.078125 -40.765625 Z M 36.078125 -40.765625 "/></g></g></g><g fill="#ffac1c" fill-opacity="1"><g transform="translate(276.0796, 207.120795)"><g><path d="M 35.703125 -40.765625 C 36.203125 -37.828125 36.578125 -34.726562 36.828125 -31.46875 C 37.078125 -28.207031 37.203125 -24.828125 37.203125 -21.328125 C 37.203125 -17.816406 37.078125 -14.429688 36.828125 -11.171875 C 36.578125 -7.921875 36.203125 -4.820312 35.703125 -1.875 C 33.441406 -1 31.023438 -0.3125 28.453125 0.1875 C 25.890625 0.6875 23.234375 0.9375 20.484375 0.9375 C 17.722656 0.9375 15.039062 0.6875 12.4375 0.1875 C 9.84375 -0.3125 7.421875 -1 5.171875 -1.875 C 5.171875 -1.875 4.914062 -2.9375 4.40625 -5.0625 C 3.90625 -7.195312 3.65625 -9.988281 3.65625 -13.4375 C 3.65625 -16.9375 3.90625 -19.75 4.40625 -21.875 C 4.914062 -24.007812 5.171875 -25.078125 5.171875 -25.078125 C 7.421875 -25.953125 9.84375 -26.640625 12.4375 -27.140625 C 15.039062 -27.648438 17.722656 -27.90625 20.484375 -27.90625 C 21.859375 -27.90625 23.21875 -27.84375 24.5625 -27.71875 C 25.90625 -27.59375 27.207031 -27.398438 28.46875 -27.140625 C 28.40625 -29.148438 28.3125 -30.953125 28.1875 -32.546875 C 28.0625 -34.140625 28 -34.9375 28 -34.9375 C 28 -34.9375 27.195312 -35.109375 25.59375 -35.453125 C 24 -35.804688 22.296875 -35.984375 20.484375 -35.984375 C 16.910156 -35.984375 13.648438 -35.679688 10.703125 -35.078125 C 7.765625 -34.484375 5.609375 -33.96875 4.234375 -33.53125 C 4.359375 -34.789062 4.5 -36.015625 4.65625 -37.203125 C 4.8125 -38.390625 4.984375 -39.578125 5.171875 -40.765625 C 7.421875 -41.640625 9.84375 -42.3125 12.4375 -42.78125 C 15.039062 -43.257812 17.722656 -43.5 20.484375 -43.5 C 23.234375 -43.5 25.890625 -43.257812 28.453125 -42.78125 C 31.023438 -42.3125 33.441406 -41.640625 35.703125 -40.765625 Z M 20.484375 -6.578125 C 22.484375 -6.578125 24.234375 -6.75 25.734375 -7.09375 C 27.242188 -7.4375 28 -7.609375 28 -7.609375 C 28 -7.609375 28.046875 -8.25 28.140625 -9.53125 C 28.234375 -10.8125 28.34375 -12.359375 28.46875 -14.171875 C 28.59375 -15.992188 28.65625 -17.71875 28.65625 -19.34375 C 27.769531 -19.601562 26.59375 -19.84375 25.125 -20.0625 C 23.65625 -20.28125 22.109375 -20.390625 20.484375 -20.390625 C 18.660156 -20.390625 16.921875 -20.210938 15.265625 -19.859375 C 13.609375 -19.515625 12.78125 -19.34375 12.78125 -19.34375 C 12.78125 -19.34375 12.6875 -18.796875 12.5 -17.703125 C 12.3125 -16.609375 12.21875 -15.1875 12.21875 -13.4375 C 12.21875 -11.738281 12.3125 -10.34375 12.5 -9.25 C 12.6875 -8.15625 12.78125 -7.609375 12.78125 -7.609375 C 12.78125 -7.609375 13.609375 -7.4375 15.265625 -7.09375 C 16.921875 -6.75 18.660156 -6.578125 20.484375 -6.578125 Z M 20.484375 -6.578125 "/></g></g></g><g fill="#ffac1c" fill-opacity="1"><g transform="translate(316.848094, 207.120795)"><g><path d="M 12.78125 -61.25 C 12.96875 -60.625 13.09375 -59.929688 13.15625 -59.171875 C 13.21875 -58.421875 13.25 -57.640625 13.25 -56.828125 C 13.25 -56.015625 13.21875 -55.234375 13.15625 -54.484375 C 13.09375 -53.734375 12.96875 -53.015625 12.78125 -52.328125 C 12.15625 -52.140625 11.460938 -51.984375 10.703125 -51.859375 C 9.953125 -51.734375 9.140625 -51.671875 8.265625 -51.671875 C 7.453125 -51.671875 6.671875 -51.734375 5.921875 -51.859375 C 5.171875 -51.984375 4.445312 -52.140625 3.75 -52.328125 C 3.625 -53.015625 3.515625 -53.734375 3.421875 -54.484375 C 3.328125 -55.234375 3.28125 -56.015625 3.28125 -56.828125 C 3.28125 -57.640625 3.328125 -58.421875 3.421875 -59.171875 C 3.515625 -59.929688 3.625 -60.625 3.75 -61.25 C 4.445312 -61.5 5.171875 -61.671875 5.921875 -61.765625 C 6.671875 -61.859375 7.453125 -61.90625 8.265625 -61.90625 C 10.015625 -61.90625 11.519531 -61.6875 12.78125 -61.25 Z M 4.046875 0 L 4.046875 -43.5 C 7.046875 -43.050781 9.863281 -42.296875 12.5 -41.234375 L 12.5 0 Z M 4.046875 0 "/></g></g></g><g fill="#ffac1c" fill-opacity="1"><g transform="translate(333.286982, 207.120795)"><g><path d="M 12.59375 0 L 4.046875 0 L 4.046875 -21.328125 C 4.046875 -24.828125 4.171875 -28.207031 4.421875 -31.46875 C 4.671875 -34.726562 5.046875 -37.828125 5.546875 -40.765625 C 7.796875 -41.640625 10.21875 -42.3125 12.8125 -42.78125 C 15.414062 -43.257812 18.097656 -43.5 20.859375 -43.5 C 23.609375 -43.5 26.265625 -43.257812 28.828125 -42.78125 C 31.398438 -42.3125 33.816406 -41.640625 36.078125 -40.765625 C 36.578125 -37.828125 36.953125 -34.726562 37.203125 -31.46875 C 37.453125 -28.207031 37.578125 -24.828125 37.578125 -21.328125 L 37.578125 0 L 29.03125 0 L 29.03125 -21.328125 C 29.03125 -22.515625 29 -23.875 28.9375 -25.40625 C 28.875 -26.945312 28.796875 -28.4375 28.703125 -29.875 C 28.609375 -31.3125 28.53125 -32.515625 28.46875 -33.484375 C 28.40625 -34.453125 28.375 -34.9375 28.375 -34.9375 C 28.375 -34.9375 27.570312 -35.109375 25.96875 -35.453125 C 24.375 -35.804688 22.671875 -35.984375 20.859375 -35.984375 C 19.035156 -35.984375 17.328125 -35.804688 15.734375 -35.453125 C 14.140625 -35.109375 13.34375 -34.9375 13.34375 -34.9375 C 13.34375 -34.9375 13.3125 -34.453125 13.25 -33.484375 C 13.1875 -32.515625 13.09375 -31.3125 12.96875 -29.875 C 12.84375 -28.4375 12.75 -26.945312 12.6875 -25.40625 C 12.625 -23.875 12.59375 -22.515625 12.59375 -21.328125 Z M 12.59375 0 "/></g></g></g></svg>